<?xml version="1.0" encoding="UTF-8" standalone="no"?>
<!-- Created with Inkscape (http://www.inkscape.org/) -->

<svg
   width="210mm"
   height="210mm"
   viewBox="0 0 210 210"
   version="1.1"
   id="svg1"
   xml:space="preserve"
   inkscape:version="1.4 (e7c3feb100, 2024-10-09)"
   sodipodi:docname="MegaPride-LessDetailed.svg"
   inkscape:export-filename="MegaPride.png"
   inkscape:export-xdpi="96"
   inkscape:export-ydpi="96"
   xmlns:inkscape="http://www.inkscape.org/namespaces/inkscape"
   xmlns:sodipodi="http://sodipodi.sourceforge.net/DTD/sodipodi-0.dtd"
   xmlns="http://www.w3.org/2000/svg"
   xmlns:svg="http://www.w3.org/2000/svg"><sodipodi:namedview
     id="namedview1"
     pagecolor="#ffffff"
     bordercolor="#000000"
     borderopacity="0.25"
     inkscape:showpageshadow="2"
     inkscape:pageopacity="0.0"
     inkscape:pagecheckerboard="0"
     inkscape:deskcolor="#d1d1d1"
     inkscape:document-units="mm"
     inkscape:zoom="0.71535493"
     inkscape:cx="246.73067"
     inkscape:cy="298.45324"
     inkscape:window-width="1920"
     inkscape:window-height="1014"
     inkscape:window-x="0"
     inkscape:window-y="0"
     inkscape:window-maximized="1"
     inkscape:current-layer="svg1"
     showgrid="false" /><defs
     id="defs1"><rect
       x="208.28821"
       y="653.52173"
       width="508.83831"
       height="188.01855"
       id="rect31" /></defs><g
     inkscape:groupmode="layer"
     id="layer8"
     inkscape:label="Back"
     transform="translate(2.2191781,-11.09589)"
     style="display:inline"><rect
       style="opacity:1;fill:#79a0d6;fill-opacity:1;stroke:#000000;stroke-width:4.1;stroke-linecap:round;stroke-linejoin:miter;stroke-dasharray:none;stroke-opacity:1"
       id="rect30"
       width="104.87394"
       height="173.13422"
       x="47.878094"
       y="31.973986"
       ry="9.1141691" /></g><g
     inkscape:groupmode="layer"
     id="layer6"
     inkscape:label="Flags"
     transform="matrix(0.68628295,0,0,0.68628295,30.612097,41.422145)"
     style="display:inline"><g
       inkscape:groupmode="layer"
       id="layer5"
       inkscape:label="Flag"
       transform="matrix(-0.99173448,-0.12830713,-0.12830713,0.99173448,205.32718,-37.317705)"
       style="display:inline"><path
         style="opacity:1;fill:#000000;fill-opacity:1;stroke:#000000;stroke-width:3.48544;stroke-linecap:round;stroke-linejoin:miter;stroke-dasharray:none;stroke-opacity:1"
         d="m 95.327167,147.35235 c 4.2397,-8.51006 25.475713,-32.58099 50.989503,-109.055611 0.4637,-1.389887 11.11521,0.639076 10.60396,1.88147 -16.0224,38.936457 -35.12303,73.317161 -54.18033,112.253621 -0.48907,0.99924 -8.264606,-3.37037 -7.413133,-5.07948 z"
         id="path26"
         sodipodi:nodetypes="sssss" /><path
         style="opacity:1;fill:#ec3123;fill-opacity:1;stroke:none;stroke-width:1.55354;stroke-linecap:round;stroke-linejoin:miter;stroke-dasharray:none;stroke-opacity:1"
         d="M 152.2226,51.306043 C 138.846,48.931549 130.46967,36.596176 114.91562,35.923549 96.30936,35.118931 68.276373,41.84456 52.039886,11.79606 L 54.96236,5.365423 c 5.251971,5.098948 19.48787,18.355864 32.903363,21.719819 8.012576,2.009166 27.029017,0.70093 36.108367,2.056962 16.71195,2.495984 15.31551,11.697163 31.56679,14.75261 z"
         id="path28"
         sodipodi:nodetypes="csccsscc" /><path
         style="fill:#ef7f29;fill-opacity:1;stroke:none;stroke-width:1.55354;stroke-linecap:round;stroke-linejoin:miter;stroke-dasharray:none;stroke-opacity:1"
         d="M 149.16507,58.330256 C 135.78847,55.955762 127.41214,43.620389 111.85809,42.947762 93.251836,42.143144 65.218846,48.868773 48.982359,18.820273 l 2.922474,-6.430637 c 5.251971,5.098948 19.48787,18.355864 32.903363,21.719819 8.01258,2.009166 27.029014,0.70093 36.108364,2.056962 16.71195,2.495984 15.31551,11.697163 31.56679,14.75261 z"
         id="path28-3"
         sodipodi:nodetypes="csccsscc" /><path
         style="fill:#f8ef08;fill-opacity:1;stroke:none;stroke-width:1.55354;stroke-linecap:round;stroke-linejoin:miter;stroke-dasharray:none;stroke-opacity:1"
         d="M 146.68864,65.080579 C 133.31204,62.706085 124.93571,50.370712 109.38165,49.698085 90.775407,48.893467 62.742417,55.619096 46.50593,25.570596 l 2.922474,-6.430637 c 5.251971,5.098948 19.48787,18.355864 32.903363,21.719819 8.01258,2.009166 27.029003,0.70093 36.108363,2.056962 16.71195,2.495984 15.31551,11.697163 31.56679,14.75261 z"
         id="path28-3-1"
         sodipodi:nodetypes="csccsscc" /><path
         style="fill:#57b846;fill-opacity:1;stroke:none;stroke-width:1.55354;stroke-linecap:round;stroke-linejoin:miter;stroke-dasharray:none;stroke-opacity:1"
         d="M 143.3223,71.826725 C 129.9457,69.452231 121.56937,57.116858 106.01532,56.444231 87.409072,55.639613 59.376083,62.365242 43.139596,32.316742 l 2.922474,-6.430637 c 5.251971,5.098948 19.48787,18.355864 32.903363,21.719819 8.012579,2.009166 27.029017,0.70093 36.108367,2.056962 16.71194,2.495984 15.3155,11.697163 31.56678,14.75261 z"
         id="path28-7"
         sodipodi:nodetypes="csccsscc" /><path
         style="fill:#3153a6;fill-opacity:1;stroke:none;stroke-width:1.55354;stroke-linecap:round;stroke-linejoin:miter;stroke-dasharray:none;stroke-opacity:1"
         d="M 140.69527,78.378492 C 127.31867,76.003998 118.94234,63.668625 103.38829,62.995998 84.782041,62.19138 56.749055,68.917009 40.512568,38.868509 l 2.922474,-6.430637 c 5.251971,5.098948 19.48787,18.355864 32.903363,21.719819 8.012576,2.009166 27.029005,0.70093 36.108365,2.056962 16.71194,2.495984 15.3155,11.697163 31.56678,14.75261 z"
         id="path28-3-6"
         sodipodi:nodetypes="csccsscc" /><path
         style="fill:#9e238f;fill-opacity:1;stroke:none;stroke-width:1.55354;stroke-linecap:round;stroke-linejoin:miter;stroke-dasharray:none;stroke-opacity:1"
         d="M 137.46639,85.163771 C 124.08979,82.789277 115.70567,70.61493 100.15941,69.781277 81.875529,68.800822 62.896758,70.587786 37.283685,45.653788 l 2.922474,-6.430637 c 5.251971,5.098948 19.48787,18.355864 32.903363,21.719819 8.01258,2.009166 27.029008,0.70093 36.108368,2.056962 16.71194,2.495984 15.3155,11.697163 31.56678,14.75261 z"
         id="path28-3-1-5"
         sodipodi:nodetypes="csccsscc" /><path
         style="opacity:1;fill:none;fill-opacity:1;stroke:#000000;stroke-width:3.48544;stroke-linecap:round;stroke-linejoin:miter;stroke-dasharray:none;stroke-opacity:1"
         d="m 155.00323,43.902544 -17.97717,41.55537 C 118.076,71.158148 95.549118,68.607388 72.964236,67.014645 60.77883,66.155299 46.825702,54.933307 36.915361,45.542618 37.417611,44.99143 54.876717,5.2699154 54.876717,5.2699154 c 0,0 19.87911,15.8555296 22.537592,17.6541366 15.041746,10.176557 32.718841,2.280208 49.663881,7.783863 7.40309,2.404484 12.76322,6.3086 27.92504,13.194629 z"
         id="path30"
         sodipodi:nodetypes="ccsscssc" /></g><g
       inkscape:groupmode="layer"
       id="layer5-6"
       inkscape:label="Flag"
       transform="matrix(0.99173448,0.12830715,0.12830715,-0.99173448,6.6090181,177.9097)"><path
         style="opacity:1;fill:#000000;fill-opacity:1;stroke:#000000;stroke-width:3.48544;stroke-linecap:round;stroke-linejoin:miter;stroke-dasharray:none;stroke-opacity:1"
         d="m 95.327167,147.35235 c 4.2397,-8.51006 25.475713,-32.58099 50.989503,-109.055611 0.4637,-1.389887 11.11521,0.639076 10.60396,1.88147 -16.0224,38.936457 -35.12303,73.317161 -54.18033,112.253621 -0.48907,0.99924 -8.264606,-3.37037 -7.413133,-5.07948 z"
         id="path26-4"
         sodipodi:nodetypes="sssss" /><path
         style="opacity:1;fill:#ec3123;fill-opacity:1;stroke:none;stroke-width:1.55354;stroke-linecap:round;stroke-linejoin:miter;stroke-dasharray:none;stroke-opacity:1"
         d="M 152.2226,51.306043 C 138.846,48.931549 130.46967,36.596176 114.91562,35.923549 96.30936,35.118931 68.276373,41.84456 52.039886,11.79606 L 54.96236,5.365423 c 5.251971,5.098948 19.48787,18.355864 32.903363,21.719819 8.012576,2.009166 27.029017,0.70093 36.108367,2.056962 16.71195,2.495984 15.31551,11.697163 31.56679,14.75261 z"
         id="path28-9"
         sodipodi:nodetypes="csccsscc" /><path
         style="fill:#ef7f29;fill-opacity:1;stroke:none;stroke-width:1.55354;stroke-linecap:round;stroke-linejoin:miter;stroke-dasharray:none;stroke-opacity:1"
         d="M 149.16507,58.330256 C 135.78847,55.955762 127.41214,43.620389 111.85809,42.947762 93.251836,42.143144 65.218846,48.868773 48.982359,18.820273 l 2.922474,-6.430637 c 5.251971,5.098948 19.48787,18.355864 32.903363,21.719819 8.01258,2.009166 27.029014,0.70093 36.108364,2.056962 16.71195,2.495984 15.31551,11.697163 31.56679,14.75261 z"
         id="path28-3-5"
         sodipodi:nodetypes="csccsscc" /><path
         style="fill:#f8ef08;fill-opacity:1;stroke:none;stroke-width:1.55354;stroke-linecap:round;stroke-linejoin:miter;stroke-dasharray:none;stroke-opacity:1"
         d="M 146.68864,65.080579 C 133.31204,62.706085 124.93571,50.370712 109.38165,49.698085 90.775407,48.893467 62.742417,55.619096 46.50593,25.570596 l 2.922474,-6.430637 c 5.251971,5.098948 19.48787,18.355864 32.903363,21.719819 8.01258,2.009166 27.029003,0.70093 36.108363,2.056962 16.71195,2.495984 15.31551,11.697163 31.56679,14.75261 z"
         id="path28-3-1-0"
         sodipodi:nodetypes="csccsscc" /><path
         style="fill:#57b846;fill-opacity:1;stroke:none;stroke-width:1.55354;stroke-linecap:round;stroke-linejoin:miter;stroke-dasharray:none;stroke-opacity:1"
         d="M 143.3223,71.826725 C 129.9457,69.452231 121.56937,57.116858 106.01532,56.444231 87.409072,55.639613 59.376083,62.365242 43.139596,32.316742 l 2.922474,-6.430637 c 5.251971,5.098948 19.48787,18.355864 32.903363,21.719819 8.012579,2.009166 27.029017,0.70093 36.108367,2.056962 16.71194,2.495984 15.3155,11.697163 31.56678,14.75261 z"
         id="path28-7-4"
         sodipodi:nodetypes="csccsscc" /><path
         style="fill:#3153a6;fill-opacity:1;stroke:none;stroke-width:1.55354;stroke-linecap:round;stroke-linejoin:miter;stroke-dasharray:none;stroke-opacity:1"
         d="M 140.69527,78.378492 C 127.31867,76.003998 118.94234,63.668625 103.38829,62.995998 84.782041,62.19138 56.749055,68.917009 40.512568,38.868509 l 2.922474,-6.430637 c 5.251971,5.098948 19.48787,18.355864 32.903363,21.719819 8.012576,2.009166 27.029005,0.70093 36.108365,2.056962 16.71194,2.495984 15.3155,11.697163 31.56678,14.75261 z"
         id="path28-3-6-8"
         sodipodi:nodetypes="csccsscc" /><path
         style="fill:#9e238f;fill-opacity:1;stroke:none;stroke-width:1.55354;stroke-linecap:round;stroke-linejoin:miter;stroke-dasharray:none;stroke-opacity:1"
         d="M 137.46639,85.163771 C 124.08979,82.789277 115.70567,70.61493 100.15941,69.781277 81.875529,68.800822 62.896758,70.587786 37.283685,45.653788 l 2.922474,-6.430637 c 5.251971,5.098948 19.48787,18.355864 32.903363,21.719819 8.01258,2.009166 27.029008,0.70093 36.108368,2.056962 16.71194,2.495984 15.3155,11.697163 31.56678,14.75261 z"
         id="path28-3-1-5-7"
         sodipodi:nodetypes="csccsscc" /><path
         style="opacity:1;fill:none;fill-opacity:1;stroke:#000000;stroke-width:3.48544;stroke-linecap:round;stroke-linejoin:miter;stroke-dasharray:none;stroke-opacity:1"
         d="m 155.00323,43.902544 -17.97717,41.55537 C 118.076,71.158148 95.549118,68.607388 72.964236,67.014645 60.77883,66.155299 46.825702,54.933307 36.915361,45.542618 37.417611,44.99143 54.876717,5.2699154 54.876717,5.2699154 c 0,0 19.87911,15.8555296 22.537592,17.6541366 15.041746,10.176557 32.718841,2.280208 49.663881,7.783863 7.40309,2.404484 12.76322,6.3086 27.92504,13.194629 z"
         id="path30-1"
         sodipodi:nodetypes="ccsscssc" /></g></g><g
     id="g34"
     inkscape:label="Mask"
     transform="translate(1.8493151,-0.73972603)"><path
       style="display:inline;fill:#3152a6;fill-opacity:1;stroke:#000000;stroke-width:2.392;stroke-linecap:round;stroke-dasharray:none;stroke-opacity:1"
       d="m 78.562493,62.705129 0.463997,-2.938647 c 20.007299,-12.40621 36.79565,-9.981457 47.96509,5.503898 6.9406,6.50759 10.81229,16.174554 10.34383,27.903868 0.0841,0.728959 0.15517,1.43098 0.21368,2.107292 0.54052,6.24752 0.0104,10.30125 -1.19468,13.13251 -2.34008,5.49809 -7.66449,9.43578 -12.34295,8.91618 -0.25567,-0.0284 -2.39571,0.71822 -2.56441,0.85624 -4.13565,3.38343 -31.975973,19.12997 -50.153838,-5.06036 -1.167647,-1.55386 -4.860409,-5.82465 -6.043669,-10.20813 -1.599362,-5.924961 -0.42277,-12.146244 0.785038,-12.99171 0.34509,-10.918211 4.309705,-20.093689 12.527912,-27.221141 z"
       id="path1"
       sodipodi:nodetypes="ccccsssssscc" /><path
       style="fill:none;stroke:#000000;stroke-width:1.76292;stroke-linecap:round;stroke-dasharray:none;stroke-opacity:1"
       d="m 122.10378,116.79076 c -1.86897,-2.97574 -6.52664,-9.26377 6.34317,-27.724046 2.17326,-2.407335 7.76242,-0.284314 8.20238,2.351349 2.62089,6.445787 0.31354,15.725857 -0.98428,18.209287 -2.51702,6.04847 -10.27708,7.95757 -13.56127,7.16341 z"
       id="path2"
       sodipodi:nodetypes="ccccc" /><path
       style="fill:#7aa1d6;fill-opacity:1;stroke:#000000;stroke-width:1.76292;stroke-linecap:round;stroke-linejoin:round;stroke-dasharray:none;stroke-opacity:1"
       d="m 137.08679,98.636159 c -3.61957,-4.433626 -6.67346,-0.608032 -9.56944,5.522931 -2.85934,8.63775 1.32509,10.08143 4.86675,9.7335 2.88616,-3.13032 5.92826,-6.02942 4.70269,-15.256431 z"
       id="path3"
       sodipodi:nodetypes="cccc"
       inkscape:label="earRIght" /><path
       style="fill:#f3562e;fill-opacity:1;stroke:#000000;stroke-width:1.76292;stroke-linecap:round;stroke-linejoin:miter;stroke-dasharray:none;stroke-opacity:1"
       d="m 132.57944,98.200884 c 1.98095,3.974596 0.43631,8.765926 -2.50956,11.268206 -0.88498,0.75173 -2.74859,0.98336 -3.1744,0.95037 -1.8485,-0.14322 1.28486,-9.79275 4.40797,-12.179913 z"
       id="path4"
       sodipodi:nodetypes="csscc" /><path
       style="fill:none;stroke:#000000;stroke-width:1.76292;stroke-linecap:round;stroke-linejoin:miter;stroke-dasharray:none;stroke-opacity:1"
       d="m 103.49803,125.49502 c 6.16264,-2.25206 18.72351,-20.39482 10.8824,-32.260413 -2.77973,-4.206414 -6.53977,-8.144004 -12.77861,-8.264206 -6.540125,-0.126008 -13.548637,2.230371 -20.440435,8.202237 -3.036665,-8.910105 -15.278414,-6.491292 -14.252574,2.366947 0.449207,3.878951 3.640912,14.121435 4.635163,17.895855 5.549249,9.36771 21.170629,16.00025 31.954056,12.05958 z"
       id="path5"
       sodipodi:nodetypes="ssscscs" /><path
       style="fill:#7aa1d6;fill-opacity:1;stroke:#000000;stroke-width:1.76292;stroke-linecap:round;stroke-linejoin:miter;stroke-dasharray:none;stroke-opacity:1"
       d="m 66.929095,91.308698 c -1.545474,-1.80938 -2.954381,8.323125 -1.859207,11.373972 1.663971,3.62158 5.492616,9.91196 4.866747,7.49151 -0.207158,-0.80116 -3.00754,-18.865482 -3.00754,-18.865482 z"
       id="path6"
       sodipodi:nodetypes="ccsc"
       inkscape:label="earLeft" /><path
       style="display:inline;fill:#7aa1d6;fill-opacity:1;stroke:#000000;stroke-width:1.76292;stroke-linecap:round;stroke-linejoin:miter;stroke-dasharray:none;stroke-opacity:1"
       d="m 127.90081,65.91444 c -9.73783,-6.180852 -20.56171,-7.241417 -26.83448,-1.275992 0,0 -22.658502,0.232 -22.658502,0.03866 0,-0.193331 0.502663,-4.678633 0.502663,-4.678633 C 98.9986,46.777404 115.02784,49.965765 127.90081,65.91444 Z"
       id="path7"
       sodipodi:nodetypes="ccscc"
       inkscape:label="M1B2" /><path
       style="fill:#7aa1d6;fill-opacity:1;stroke:#000000;stroke-width:1.76292;stroke-linecap:round;stroke-linejoin:miter;stroke-dasharray:none;stroke-opacity:1"
       d="m 101.02767,64.754449 c 0,-0.270666 -1.739989,-7.539948 -2.861315,-7.307949 -1.121325,0.231998 -18.907868,2.551981 -18.907868,2.551981 l -0.773326,4.562635 z"
       id="path8"
       sodipodi:nodetypes="csccc"
       inkscape:label="M1B1" /><path
       style="fill:#7aa1d6;fill-opacity:1;stroke:#000000;stroke-width:1.76292;stroke-linecap:round;stroke-linejoin:miter;stroke-dasharray:none;stroke-opacity:1"
       d="m 74.34683,82.022078 c 2.344186,-0.148119 18.536452,-0.438092 19.896408,-2.319233 1.644533,-2.274776 3.84313,-9.28156 4.774116,-12.125289 0.287335,-0.877675 -4.604842,-5.105797 -6.007225,-5.536141 -0.876906,-0.269093 -14.92024,1.945237 -15.056257,2.000146 -1.116158,0.450579 -4.069038,6.919564 -5.092711,9.432751 -0.72189,1.772289 -0.733801,8.688004 1.485669,8.547766 z"
       id="path9"
       sodipodi:nodetypes="sssssss"
       inkscape:label="M2B2" /><path
       style="fill:#7aa1d6;fill-opacity:1;stroke:#000000;stroke-width:1.76292;stroke-linecap:round;stroke-linejoin:miter;stroke-dasharray:none;stroke-opacity:1"
       d="m 73.071865,73.609052 c 4.843667,0.813275 10.442969,-0.646633 14.717625,-1.312783 0.3148,-0.04906 4.794312,-6.890402 5.379782,-9.769248 0.350583,-1.723868 -15.650771,1.222101 -15.650771,1.222101 z"
       id="path10"
       sodipodi:nodetypes="csscc"
       inkscape:label="M2B2" /><path
       style="fill:#386eb8;fill-opacity:1;stroke:#000000;stroke-width:1.763;stroke-linecap:round;stroke-linejoin:miter;stroke-dasharray:none;stroke-opacity:1"
       d="m 71.447877,112.66211 c 2.748039,-8.96576 -0.401267,-9.58294 -0.130941,-24.358559 0.02858,-1.562288 -4.083697,3.981371 -4.083697,3.981371 z"
       id="path11"
       sodipodi:nodetypes="cscc" /></g><g
     id="g1"
     inkscape:label="Face"><path
       style="display:inline;fill:#fed8b2;fill-opacity:1;stroke:#000000;stroke-width:1.7778;stroke-linecap:round;stroke-linejoin:miter;stroke-dasharray:none;stroke-opacity:1"
       d="m 83.088924,92.082889 c 4.280956,-2.299341 8.666648,-5.765521 13.878663,-7.378472 6.922273,-2.142221 14.472913,-1.121816 19.899403,7.485384 1.65677,2.627873 2.07094,6.174005 2.18756,9.315249 0.16001,4.30979 -4.50799,17.5887 -11.91413,22.57048 -3.6514,2.45613 -23.417647,4.57543 -33.194171,-11.76553 -0.06249,-0.10445 0.649401,-2.4538 0.632378,-6.38442 -0.01961,-4.52717 -0.790067,-11.133992 -1.262693,-18.527736 -0.115919,-1.813425 7.717411,-1.403155 9.77299,4.685045 z"
       id="path12"
       sodipodi:nodetypes="csssssssc"
       sodipodi:insensitive="true" /><path
       style="display:inline;fill:#ffffff;fill-opacity:1;stroke:#000000;stroke-width:1.763;stroke-linecap:round;stroke-linejoin:miter;stroke-dasharray:none;stroke-opacity:1"
       d="m 99.839048,107.97259 c 6.524182,-0.55083 9.135052,-13.805187 6.005052,-18.077433 -2.29246,-3.129065 -8.825824,-3.379629 -11.66998,-0.183957 -3.851544,4.32756 -1.729749,18.88571 5.664928,18.26139 z"
       id="path16"
       sodipodi:nodetypes="ssss" /><path
       style="fill:#ffffff;fill-opacity:1;stroke:#000000;stroke-width:1.763;stroke-linecap:round;stroke-linejoin:miter;stroke-dasharray:none;stroke-opacity:1"
       d="m 80.219925,107.74462 c 3.713747,-4.99083 2.93061,-11.695413 1.605688,-16.683234 -1.229377,-4.628133 -6.548364,-2.974847 -7.198893,-0.627374 -0.969082,18.216898 4.025331,19.417638 5.593205,17.310608 z"
       id="path15"
       sodipodi:nodetypes="sscs" /><path
       style="fill:none;fill-opacity:1;stroke:#000000;stroke-width:2.13367;stroke-linecap:round;stroke-linejoin:miter;stroke-dasharray:none;stroke-opacity:1"
       d="m 85.723596,116.24616 c 5.279904,0.22572 9.789043,-0.31933 13.57144,-1.59112"
       id="path17"
       sodipodi:nodetypes="cc"
       sodipodi:insensitive="true" /><path
       style="fill:none;fill-opacity:1;stroke:#000000;stroke-width:2.13367;stroke-linecap:round;stroke-linejoin:miter;stroke-dasharray:none;stroke-opacity:1"
       d="m 85.408896,108.84981 c -1.738688,0.37234 -1.526451,1.30208 -1.591134,2.15271"
       id="path20"
       sodipodi:nodetypes="cc" /><path
       style="display:inline;fill:#3051a6;fill-opacity:1;stroke:none;stroke-width:1.65476;stroke-linecap:round;stroke-linejoin:miter;stroke-dasharray:none;stroke-opacity:1"
       d="m 78.964452,92.635282 c 3.123914,-0.186903 2.486015,11.361428 -0.0715,12.262008 -2.298352,0.80932 -3.125549,-4.52535 -3.042648,-6.374357 0.112499,-2.509158 0.732049,-5.745132 3.114145,-5.887651 z"
       id="path21"
       sodipodi:nodetypes="ssss" /><path
       style="display:none;fill:#1b1b53;fill-opacity:1;stroke:#000000;stroke-width:1.7778;stroke-linecap:round;stroke-linejoin:miter;stroke-dasharray:none;stroke-opacity:1"
       d="m 79.241623,94.567958 c -0.200506,0.95647 -0.228166,8.267062 0.09725,8.261302 0.327164,-0.006 0.948599,-6.11874 0.817709,-7.012531 -0.116047,-0.792426 -0.749575,-2.037677 -0.914954,-1.248771 z"
       id="path23"
       sodipodi:nodetypes="ssss"
       sodipodi:insensitive="true" /><path
       style="display:inline;fill:#3051a6;fill-opacity:1;stroke:none;stroke-width:1.39094;stroke-linecap:round;stroke-linejoin:miter;stroke-dasharray:none;stroke-opacity:1"
       d="m 96.036851,105.30792 c -2.00863,-2.33616 -1.601088,-14.441439 0.772251,-14.699545 5.633198,-0.612616 6.036398,6.432972 4.664228,11.549465 -0.71672,2.67245 -4.399967,4.35561 -5.436479,3.15008 z"
       id="path22"
       sodipodi:nodetypes="ssss" /><path
       style="display:inline;fill:#1b1b53;fill-opacity:1;stroke:#000000;stroke-width:2.34564;stroke-linecap:round;stroke-linejoin:miter;stroke-dasharray:none;stroke-opacity:1"
       d="m 97.447018,93.661104 c -0.2821,1.183481 -0.32101,10.229196 0.13681,10.222066 0.46028,-0.007 1.33459,-7.570987 1.15044,-8.676907 -0.16326,-0.980509 -1.05458,-2.521311 -1.28727,-1.545159 z"
       id="path23-2"
       sodipodi:nodetypes="ssss" /></g><path
     style="display:inline;fill:#1b1b53;fill-opacity:1;stroke:#000000;stroke-width:1.91029;stroke-linecap:round;stroke-linejoin:miter;stroke-dasharray:none;stroke-opacity:1"
     d="m 78.34227,94.775278 c -0.229742,0.963826 -0.261431,8.330642 0.111418,8.324842 0.374851,-0.006 1.086889,-6.165805 0.936917,-7.066466 -0.132959,-0.798526 -0.858849,-2.053354 -1.048352,-1.258376 z"
     id="path23-2-1"
     sodipodi:nodetypes="ssss" /><path
     id="rect30-2-0"
     style="fill:#386db7;stroke:#000000;stroke-width:4.1;stroke-linecap:round;stroke-dasharray:none"
     d="m 59.803588,155.65173 h 86.645602 c 4.10902,0 8.46762,-0.5693 8.54658,0.021 0.20278,1.51595 0.23603,5.39186 0.29015,9.18562 l 0.2774,19.44355 c 0.069,4.83878 -4.06492,9.11417 -9.11417,9.11417 H 59.803588 c -5.04925,0 -9.114169,-4.06492 -9.114169,-9.11417 v -19.536 c 0,-3.10644 -0.392335,-6.02171 -0.286097,-8.07269 0.03819,-0.73721 7.457461,-1.04148 9.400266,-1.04148 z"
     sodipodi:nodetypes="sssssssssss" /><text
     style="font-size:44.0237px;line-height:1;font-family:Unifont;-inkscape-font-specification:Unifont;white-space:pre;fill:#000000;fill-opacity:1;stroke:#ffffff;stroke-width:4.29838;stroke-linecap:round"
     transform="scale(1.10674,0.90355459)"
     x="59.733414"
     y="206.97179"
     id="text34">D</text><text
     style="font-size:44.0767px;line-height:1;font-family:Unifont;-inkscape-font-specification:Unifont;white-space:pre;fill:#000000;fill-opacity:1;stroke:#ffffff;stroke-width:4.30356;stroke-linecap:round"
     transform="scale(1.1049543,0.9050148)"
     x="81.854805"
     y="206.71822"
     id="text33">V</text><text
     style="font-size:44.1343px;line-height:1;font-family:Unifont;-inkscape-font-specification:Unifont;white-space:pre;fill:#000000;fill-opacity:1;stroke:#ffffff;stroke-width:4.30919;stroke-linecap:round"
     transform="scale(1.1033137,0.90636054)"
     x="108.39815"
     y="206.27432"
     id="text32">D</text><path
     style="fill:#000000;fill-opacity:1;stroke:#000000;stroke-width:1.763;stroke-linecap:round;stroke-dasharray:none"
     d="m 74.307961,90.032611 c 0.40562,-1.418009 1.221887,-2.481369 3.530693,-2.255718 l -3.203776,-0.686524 z"
     id="path18"
     sodipodi:nodetypes="cccc" /><circle
     style="fill:#f9f9f9;stroke:none;stroke-width:1.763;stroke-linecap:round"
     id="path13"
     cy="93.595993"
     cx="79.473236"
     r="1.2095884" /><circle
     style="fill:#f9f9f9;stroke:none;stroke-width:1.763;stroke-linecap:round"
     id="path13-3"
     cy="91.85836"
     cx="99.0858"
     r="1.2095884" /><ellipse
     style="fill:#ef7f28;fill-opacity:1;stroke:none;stroke-width:1.763;stroke-linecap:round"
     id="path14"
     cx="106.65926"
     cy="112.66953"
     rx="4.2071919"
     ry="3.6523974" /><ellipse
     style="fill:#ef7f28;fill-opacity:1;stroke:none;stroke-width:1.09351;stroke-linecap:round"
     id="path14-1"
     cx="78.784348"
     cy="113.73188"
     rx="2.6095243"
     ry="2.2654111" /></svg>
