<?xml version="1.0" encoding="UTF-8" standalone="no"?>
<!-- Created with Inkscape (http://www.inkscape.org/) -->

<svg
   version="1.1"
   id="svg1"
   width="1134.6667"
   height="1134.6667"
   viewBox="0 0 1134.6667 1134.6667"
   xmlns="http://www.w3.org/2000/svg"
   xmlns:svg="http://www.w3.org/2000/svg">
  <defs
     id="defs1" />
  <g
     id="g1"
     style="fill:#171717;fill-opacity:1">
    <path
       style="fill:#171717;fill-opacity:1"
       d="m 523.0755,1094.3608 -26,-15.4243 -20.66667,-13.6885 -20.66667,-13.6885 -18.66667,-13.8742 -18.66666,-13.8743 -16,-13.3394 -16.00001,-13.33947 -17.33333,-16.0646 -17.33334,-16.0647 -13.43527,-14.5231 -13.43528,-14.5231 -10.60289,-12.6666 -10.6029,-12.6667 -10.06556,-13.3334 -10.06556,-13.3333 -9.57827,-14.3117 -9.57827,-14.3118 -7.26769,-11.9855 -7.2677,-11.9855 -8.7445,-16.0304 -8.7445,-16.0304 -8.10481,-17.6724 -8.1048,-17.6723 -6.40745,-16.0371 -6.40744,-16.0371 -6.65613,-19.9629 -6.65612,-19.96292 -4.74508,-17.33333 -4.74507,-17.33334 -4.71685,-20.84361 -4.71685,-20.84361 -3.96109,-23.82306 -3.96109,-23.82305 -2.01956,-18.00001 -2.01956,-18 -1.3099,-20 -1.3099,-20 -1.42034,-44 -1.42034,-44.00001 -1.95263,-149.94533 -1.95263,-149.94533 1.15841,-1.15841 1.15841,-1.15841 21.8296,7.95997 21.8296,7.95998 13.316,4.23987 13.316,4.23988 18.36146,4.50854 18.36147,4.50855 18.04377,2.75262 18.04377,2.75263 21.3792,1.21371 21.37919,1.21371 19.64291,-1.17547 19.64291,-1.17546 14.06321,-2.08819 14.0632,-2.08818 15.86013,-3.88015 15.86013,-3.88015 12.44572,-4.1773 12.44572,-4.1773 15.57567,-6.57807 15.57567,-6.57806 14.64528,-8.141479 14.64528,-8.14147 11.18708,-7.53036 11.18708,-7.53036 5.47959,-3.74167 5.47959,-3.74166 3.83824,0.74265 3.83824,0.74264 8.82842,6.50836 8.82843,6.50835 9.33334,5.69902 9.33333,5.69902 18.40995,9.007679 18.40994,9.00767 14.92339,5.40502 14.92339,5.40503 13.70016,4.00405 13.70016,4.00405 17.02945,3.32048 17.02944,3.32047 15.93707,2.12462 15.93706,2.12462 24.00001,0.77982 24,0.77982 18.66667,-1.63409 18.66666,-1.63408 18,-3.16855 18.00001,-3.16856 17.33333,-4.76744 17.33334,-4.76744 15.33333,-6.11752 15.33333,-6.11753 11.33334,-5.6529 11.33331,-5.65291 3,-0.93269 3,-0.932689 -0.037,96.423179 -0.036,96.4232 -1.2485,80.80972 -1.2486,80.80972 -1.4149,21.19028 -1.4149,21.19029 -2.0308,19.33333 -2.0308,19.33334 -3.3599,22.66667 -3.35977,22.66667 -4.61828,22.44084 -4.61827,22.44084 -4.61679,18.01347 -4.61679,18.01347 -6.13625,20.01062 -6.13626,20.01068 -7.36567,20.2017 -7.36568,20.2017 -7.9693,18.6667 -7.9693,18.6667 -9.81498,19.3333 -9.81498,19.3333 -8.82956,14.6667 -8.82955,14.6667 -7.42682,11.1758 -7.42682,11.1757 -9.99373,13.4909 -9.99373,13.4909 -12.33553,14.779 -12.33553,14.7789 -15.13579,15.7748 -15.13578,15.7748 -16,14.6211 -16,14.6212 -22.66667,18.19207 -22.66667,18.1921 -16,11.4288 -16,11.4288 -18.53528,12.3629 -18.53527,12.363 -29.46473,17.6409 -29.46473,17.6409 -4.26712,2.2004 -4.26712,2.2003 -3.73288,-0.086 -3.73288,-0.086 z M 447.74216,803.28993 v -8.6666 l -9,-0.3943 -9,-0.3942 v -8.6058 -8.6057 h -8.66667 -8.66666 v -8.6667 -8.6667 h -8.66667 -8.66667 v -35.3333 -35.33335 h -8.66667 -8.66666 v -68 -68.00001 h 8.66666 8.66667 V 535.28994 517.9566 h 8.66667 8.66667 v -9.35378 -9.35378 l 38.33333,0.35378 38.33334,0.35378 0.39425,9 0.39425,9 h 8.60575 8.60575 v 8.66667 8.66667 h 8.66667 8.66666 v 17.33333 17.33334 h 8.66667 8.66667 v 20.66666 20.66667 h 20.66667 20.66666 v -20.66667 -20.66666 h 8.66667 8.66667 v -17.27242 -17.27241 l 9,-0.39426 9,-0.39425 0.39535,-8.27132 0.39534,-8.27132 8.27132,-0.39535 8.27133,-0.39535 0.39425,-9 0.39425,-9 h 37.87816 37.87817 l 0.39425,9 0.39425,9 9,0.39426 9.00001,0.39425 v 17.27242 17.27241 h 8.66666 8.66667 v 68.00001 68 h -8.66667 -8.66666 v 35.33335 35.3333 h -9.33334 -9.33333 v 8.6667 8.6667 h -8.66667 -8.66667 v 8.6666 8.6667 h -8.66666 -8.66667 v 9.3593 9.3594 l 29,-0.3594 29,-0.3593 0.41,-5.6667 0.41,-5.6666 h 8.59 8.59 v -8.6058 -8.6057 l 9,-0.3943 9,-0.3942 0.39426,-9 0.39425,-9 h 8.60575 8.60575 v -11.3334 -11.3333 h 17.27241 17.27242 l 0.39425,-9 0.39425,-9 9,-0.3943 9,-0.3942 v -8.6058 -8.6057 h 8.66667 8.66667 v -8.59 -8.59002 l 5.66667,-0.41 5.66666,-0.41 v -88 -88.00001 l -5.66666,-0.41 -5.66667,-0.40999 v -8.59001 -8.59 h -8.63848 -8.63848 l -0.36152,-26.33334 -0.36152,-26.33333 -9,-0.39425 -9,-0.39426 v -26.60575 -26.60574 h -8.66667 -8.66667 v -17.33334 -17.33333 h -2.57393 -2.57393 l -0.42607,-3 -0.42607,-3 -5.66667,-0.41 -5.66666,-0.41 v -8.59 -8.59001 h -8.66667 -8.66667 v -8.66666 -8.66667 h -9.33333 -9.33334 v -8.66667 -8.66666 h -8.60574 -8.60575 l -0.39425,-9.00001 -0.39426,-9 -20.33333,-0.36806 -20.33334,-0.36806 v -8.63194 -8.63194 h -43.92334 -43.92334 l -0.40999,-5.66666 -0.41,-5.66667 -43.66667,-0.35155 -43.66667,-0.35156 v 6.00025 6.00024 l -44.33334,0.35131 -44.33333,0.35131 -0.39607,8.29894 -0.39606,8.29895 -20.2706,0.36772 -20.27061,0.36772 -0.39425,9 -0.39426,9.00001 h -8.60574 -8.60575 v 8.66666 8.66667 h -8.66667 -8.66667 v 8.66667 8.66666 h -8.66666 -8.66667 v 8.66667 8.66667 h -6 -6 v 3.33333 3.33334 h -3.33333 -3.33334 v 17.33333 17.33334 h -8.66666 -8.66667 v 26.66666 26.66667 h -8.66667 -8.66667 v 26.66667 26.66667 h -8.66666 -8.66667 v 8.66667 8.66666 h -6 -6 v 88.66668 88.66667 h 6 6 v 8.66665 8.6667 h 8.66667 8.66666 v 8.6667 8.6666 h 8.60575 8.60575 l 0.39425,9 0.39425,9 17.66667,0.3721 17.66667,0.372 v 11.2946 11.2947 h 8.66667 8.66666 v 9.3333 9.3333 h 8.66667 8.66667 v 8.6667 8.6667 h 8.66667 8.66666 v 5.1111 5.1111 l 0.91421,0.9142 0.9142,0.9142 28.75247,-0.3587 28.75246,-0.3586 z"
       id="path1" />
  </g>
</svg>
